<?xml version="1.0" encoding="utf-8"?>
<!-- Generator: Adobe Illustrator 20.1.0, SVG Export Plug-In . SVG Version: 6.00 Build 0)  -->
<svg version="1.1" id="Слой_1" xmlns="http://www.w3.org/2000/svg" xmlns:xlink="http://www.w3.org/1999/xlink" x="0px" y="0px"
	  xml:space="preserve">
<style type="text/css">
	.st0{fill:#25678A;stroke:#25678A;stroke-width:0.25;stroke-miterlimit:10;}
	.st1{fill:none;stroke:#215870;stroke-width:8;stroke-miterlimit:10;}
	.st2{display:none;}
	.st3{display:inline;fill:#336699;stroke:#FFFFFF;stroke-width:0.5;stroke-miterlimit:10;}
	.st4{fill:#CCCC00;}
	.st5{fill:#999900;}
	.st6{fill:#FFFF66;}
	.st7{fill:#64350D;}
	.st8{fill:#CCCC00;stroke:#FFFFFF;stroke-width:3;stroke-miterlimit:10;}
	.st9{fill:#330000;}
	.st10{fill:none;stroke:#FFFFFF;stroke-width:4;stroke-miterlimit:10;}
	.st11{fill:none;stroke:#FFFFFF;stroke-width:3;stroke-miterlimit:10;}
	.st12{fill:none;stroke:#FFFFFF;stroke-width:0.5;stroke-miterlimit:10;}
	.st13{fill:none;stroke:#FFFFFF;stroke-width:2;stroke-miterlimit:10;}
	.st14{fill:#0099CC;}
	.st15{fill:#006699;}
	.st16{fill:#3399CC;}
	.st17{fill:#99CCCC;}
	.st18{fill:#3399CC;stroke:#FFFFFF;stroke-width:3;stroke-miterlimit:10;}
	.st19{fill:#059939;}
	.st20{fill:#336600;}
	.st21{fill:#66CC66;}
	.st22{fill:#059939;stroke:#FFFFFF;stroke-width:3;stroke-miterlimit:10;}
	.st23{fill:#317A01;}
	.st24{fill:#267726;}
	.st25{fill:#3B8C06;}
	.st26{fill:#5FCE17;}
	.st27{fill:#E8B274;}
	.st28{fill:#FFCD05;}
	.st29{fill:#8CA6F9;}
	.st30{fill:#FFD85A;}
	.st31{fill:#FCFCFC;}
	.st32{fill:#3693D8;}
	.st33{opacity:0.4;fill:#444444;}
	.st34{opacity:0.5;fill:#444444;}
	.st35{fill:#FFFFFF;}
	.st36{fill:#595858;}
	.st37{fill:#494949;}
	.st38{fill:#353535;}
	.st39{fill:none;stroke:#606060;stroke-miterlimit:10;}
	.st40{fill:#D3D3D3;}
	.st41{fill:#262626;}
	.st42{fill:#383838;}
	.st43{fill:none;stroke:#383838;stroke-width:2;stroke-miterlimit:10;}
	.st44{fill:#1D4E69;}
	.st45{fill:none;stroke:#7293E8;stroke-miterlimit:10;}
	.st46{fill:none;stroke:#7293E8;stroke-miterlimit:10;stroke-dasharray:12.1105,12.1105;}
	.rt0{fill:#25678A;stroke:#25678A;stroke-width:0.25;stroke-miterlimit:10;}
	.rt1{fill:none;stroke:#215870;stroke-width:8;stroke-miterlimit:10;}
	.rt2{display:none;}
	.rt3{display:inline;fill:#336699;stroke:#FFFFFF;stroke-width:0.5;stroke-miterlimit:10;}
	.rt4{fill:#CCCC00;}
	.rt5{fill:#999900;}
	.rt6{fill:#FFFF66;}
	.rt7{fill:#64350D;}
	.rt8{fill:#CCCC00;stroke:#FFFFFF;stroke-width:3;stroke-miterlimit:10;}
	.rt9{fill:#330000;}
	.rt10{fill:none;stroke:#FFFFFF;stroke-width:4;stroke-miterlimit:10;}
	.rt11{fill:none;stroke:#FFFFFF;stroke-width:3;stroke-miterlimit:10;}
	.rt12{fill:none;stroke:#FFFFFF;stroke-width:0.5;stroke-miterlimit:10;}
	.rt13{fill:none;stroke:#FFFFFF;stroke-width:2;stroke-miterlimit:10;}
	.rt14{fill:#0099CC;}
	.rt15{fill:#006699;}
	.rt16{fill:#3399CC;}
	.rt17{fill:#99CCCC;}
	.rt18{fill:#3399CC;stroke:#FFFFFF;stroke-width:3;stroke-miterlimit:10;}
	.rt19{fill:#059939;}
	.rt20{fill:#336600;}
	.rt21{fill:#66CC66;}
	.rt22{fill:#059939;stroke:#FFFFFF;stroke-width:3;stroke-miterlimit:10;}
	.rt23{fill:#317A01;}
	.rt24{fill:#267726;}
	.rt25{fill:#3B8C06;}
	.rt26{fill:#5FCE17;}
	.rt27{fill:#B57E48;}
	.rt28{fill:#E8B274;}
	.rt29{fill:#FFCD05;}
	.rt30{fill:#8CA6F9;}
	.rt31{fill:#FFD85A;}
	.rt32{fill:#FCFCFC;}
	.rt33{fill:#3693D8;}
	.rt34{opacity:0.4;fill:#444444;}
	.rt35{opacity:0.5;fill:#444444;}
	.rt36{fill:#FFFFFF;}
	.rt37{fill:#595858;}
	.rt38{fill:#494949;}
	.rt39{fill:#353535;}
	.rt40{fill:none;stroke:#606060;stroke-miterlimit:10;}
	.rt41{fill:#D3D3D3;}
	.rt42{fill:#262626;}
	.rt43{fill:#383838;}
	.rt44{fill:none;stroke:#383838;stroke-width:2;stroke-miterlimit:10;}
	.rt45{opacity:0.64;fill:#707070;}
	.rt46{fill:#66410C;}
	.rt47{fill:#1D4E69;}
	.rt48{fill:none;stroke:#7293E8;stroke-miterlimit:10;}
	.rt49{fill:none;stroke:#7293E8;stroke-miterlimit:10;stroke-dasharray:12.1105,12.1105;}
</style>
<svg viewBox="0 -260 250 671">
<!--<svg viewBox="0 0 250 371">-->
	<g id="МОст_2_">
		<g>
			<g>
				<path class="st1" d="M157,328.9h10.6c0.7-0.7,1.1-1.6,1.1-2.5V126.6c0-1.9-1.6-3.4-3.4-3.4h-6c-1.9,0-3.4,1.6-3.4,3.4v199.9
					C155.9,327.5,156.3,328.4,157,328.9z"/>
				<line class="st1" x1="162.3" y1="122.1" x2="162.3" y2="115.1"/>
				<path class="st1" d="M155.9,126.6c-3.7,30.8-10.1,63.5-27,89.6c-15,23.2-29.7,44.5-50.7,62.7C56,298,31.3,313.6,5.8,327.5"/>
				<path class="st1" d="M168.8,128.3c3.5,87.5,70.7,160,147.4,199.4"/>
				<path class="st1" d="M126.9,221.1c-0.5,35.4-0.5,70.7,0,106.8"/>
				<path class="st1" d="M96.3,260c0,23,0,44.2,0,67.9"/>
				<path class="st1" d="M60.3,292.5c0,11.8,0,23.5,0,35.4"/>
				<path class="st1" d="M33.8,311.3c0,5.5,0,11,0,16.6"/>
				<path class="st1" d="M198.8,225.4c0,33.1,0,68.4,0,102.7"/>
				<path class="st1" d="M228.9,261.2c0,21.7,0,44.7,0,66.8"/>
				<line class="st1" x1="264.8" y1="295.4" x2="264.8" y2="328.6"/>
				<path class="st1" d="M289,314.3c0,4.4,0,9,0,13.4"/>
			</g>
			<g>
				<path class="st1" d="M528.3,329.5h10.6c0.7-0.7,1.1-1.6,1.1-2.5V126.9c0-1.9-1.6-3.4-3.4-3.4h-6c-1.9,0-3.4,1.6-3.4,3.4v199.9
					C527.1,327.9,527.6,328.8,528.3,329.5z"/>
				<line class="st1" x1="533.4" y1="122.7" x2="533.4" y2="115.6"/>
				<path class="st1" d="M527.1,126.9c-3.7,30.8-10.1,63.5-27,89.6c-15,23.2-29.7,44.5-50.7,62.7c-22.1,19.1-46.8,34.6-72.3,48.6"/>
				<path class="st1" d="M540,128.7c3.5,87.5,70.7,160,147.4,199.4"/>
				<path class="st1" d="M498.1,221.6c-0.5,35.4-0.5,70.7,0,106.8"/>
				<path class="st1" d="M467.5,260.5c0,23,0,44.2,0,67.9"/>
				<path class="st1" d="M431.5,292.9c0,11.8,0,23.5,0,35.3"/>
				<path class="st1" d="M404.9,311.8c0,5.5,0,11,0,16.6"/>
				<path class="st1" d="M570,225.7c0,33.1,0,68.4,0,102.7"/>
				<path class="st1" d="M600.1,261.6c0,21.7,0,44.7,0,66.8"/>
				<line class="st1" x1="636" y1="295.9" x2="636" y2="329.1"/>
				<path class="st1" d="M660.2,314.6c0,4.4,0,9,0,13.4"/>
			</g>
		</g>
	</g>
	<g id="Слой_1_1_">
		<g>
			<g>
				<g>
					<rect x="316.6" y="207.1" class="st4" width="68.4" height="103.2"/>
				</g>
				<rect x="361.1" y="277.3" class="st5" width="23.7" height="33.1"/>
				<polygon class="st4" points="350.7,174.1 385,207.5 316.6,207.5 			"/>
				<polyline class="st6" points="320.5,206.9 352.5,177.1 354.8,179.4 356.4,180.8 328.6,206.9 			"/>
				<polygon class="st6" points="346.8,181.8 371.6,207.1 381.6,207.1 350.7,177.8 			"/>
				<polyline class="st7" points="316.6,207.1 350.7,174.1 353,176.4 350.7,178.7 320.8,207.1 			"/>
				<polyline class="st7" points="380.2,207.1 350.7,178.7 353,176.4 385,207.1 			"/>
				<rect x="344.5" y="196.2" class="st8" width="11.8" height="10.8"/>
				<rect x="368.6" y="217.9" class="st9" width="9.4" height="25.6"/>
				<rect x="321.9" y="250.6" class="st9" width="29.3" height="20.1"/>
				<rect x="321.9" y="215.6" class="st9" width="29.3" height="27.9"/>
				<line class="st10" x1="316.6" y1="207.5" x2="385" y2="207.5"/>
				<line class="st11" x1="316.6" y1="215.6" x2="385" y2="215.6"/>
				<line class="st11" x1="316.6" y1="244.2" x2="385" y2="244.2"/>
				<path class="st12" d="M365.2,288.4c5.5,0,11,0,16.3,0"/>
				<path class="st12" d="M316.6,288.4c14.8,0,29.7,0,44.5,0"/>
				<line class="st13" x1="331.6" y1="215.6" x2="331.6" y2="288.2"/>
				<line class="st13" x1="341.9" y1="216.3" x2="341.9" y2="288.9"/>
				<line class="st13" x1="351.2" y1="215.6" x2="351.2" y2="288.1"/>
				<line class="st13" x1="316.6" y1="237.9" x2="385" y2="237.9"/>
				<line class="st13" x1="321.9" y1="215.6" x2="321.9" y2="288.2"/>
				<path class="st9" d="M377.8,250.6h-9c-1.9,0-3.7,1.6-3.7,3.7v33.8h16.3v-33.6C381.6,252.4,379.9,250.6,377.8,250.6z"/>
				<rect x="365.2" y="288.9" class="st4" width="16.3" height="21.4"/>
			</g>
			<g>
				<g>
					<rect x="247.5" y="199.6" class="st14" width="68.4" height="103.2"/>
				</g>
				<rect x="292.2" y="269.8" class="st15" width="23.7" height="33.1"/>
				<polygon class="st16" points="281.7,166.7 315.9,200 247.5,200 			"/>
				<polyline class="st17" points="251.5,199.4 283.3,169.5 285.6,171.8 287.4,173.3 259.7,199.4 			"/>
				<polygon class="st17" points="277.7,174.3 302.4,199.8 312.7,199.8 281.7,170.3 			"/>
				<polyline class="st7" points="247.5,199.6 281.7,166.7 284,169 281.7,171.1 251.7,199.6 			"/>
				<polyline class="st7" points="311.3,199.6 281.7,171.1 284,169 315.9,199.6 			"/>
				<rect x="275.4" y="188.6" class="st18" width="11.8" height="10.8"/>
				<rect x="299.4" y="210.4" class="st9" width="9.4" height="25.6"/>
				<rect x="252.9" y="243.3" class="st9" width="29.3" height="20.1"/>
				<rect x="252.9" y="208.1" class="st9" width="29.3" height="27.9"/>
				<line class="st10" x1="247.6" y1="200" x2="315.9" y2="200"/>
				<line class="st11" x1="247.6" y1="208.1" x2="315.9" y2="208.1"/>
				<line class="st11" x1="247.6" y1="236.9" x2="315.9" y2="236.9"/>
				<path class="st12" d="M296.2,281.1c5.5,0,11,0,16.3,0"/>
				<path class="st12" d="M247.6,281.1c14.8,0,29.7,0,44.5,0"/>
				<line class="st13" x1="262.7" y1="208.1" x2="262.7" y2="280.9"/>
				<line class="st13" x1="272.7" y1="208.8" x2="272.7" y2="281.4"/>
				<line class="st13" x1="282.3" y1="208.3" x2="282.3" y2="280.5"/>
				<line class="st13" x1="247.6" y1="230.5" x2="315.9" y2="230.5"/>
				<line class="st13" x1="252.9" y1="208.1" x2="252.9" y2="280.9"/>
				<path class="st9" d="M308.8,243.3h-9c-1.9,0-3.7,1.6-3.7,3.7v33.8h16.3v-33.6C312.5,244.8,310.9,243.3,308.8,243.3z"/>
				<rect x="296.2" y="281.4" class="st16" width="16.3" height="21.4"/>
			</g>
			<g>
				<rect x="179.2" y="194.2" class="st19" width="68.4" height="103.2"/>
				<rect x="223.8" y="264.4" class="st20" width="23.7" height="33.1"/>
				<polygon class="st19" points="213.3,161.3 247.6,194.6 179.2,194.6 			"/>
				<polyline class="st21" points="183.1,194 215.1,164.2 217.4,166.5 219,167.9 191.2,194 			"/>
				<polygon class="st21" points="209.5,168.9 234.2,194.4 244.3,194.4 213.3,164.9 			"/>
				<polyline class="st7" points="179.2,194.2 213.3,161.3 215.6,163.6 213.3,165.7 183.5,194.2 			"/>
				<polyline class="st7" points="242.9,194.2 213.3,165.7 215.6,163.6 247.6,194.2 			"/>
				<rect x="207.2" y="183.2" class="st22" width="11.8" height="10.8"/>
				<rect x="231.2" y="205" class="st9" width="9.4" height="25.6"/>
				<rect x="184.5" y="237.9" class="st9" width="29.3" height="20.1"/>
				<rect x="184.5" y="202.7" class="st9" width="29.3" height="27.9"/>
				<line class="st10" x1="179.2" y1="194.6" x2="247.6" y2="194.6"/>
				<line class="st11" x1="179.2" y1="202.7" x2="247.6" y2="202.7"/>
				<line class="st11" x1="179.2" y1="231.5" x2="247.6" y2="231.5"/>
				<path class="st12" d="M227.8,275.7c5.5,0,11,0,16.3,0"/>
				<path class="st12" d="M179.2,275.7c14.8,0,29.7,0,44.5,0"/>
				<line class="st13" x1="194.3" y1="275.5" x2="194.3" y2="202.7"/>
				<line class="st13" x1="204.5" y1="203.4" x2="204.5" y2="276"/>
				<line class="st13" x1="213.9" y1="202.9" x2="213.9" y2="275.2"/>
				<line class="st13" x1="179.2" y1="225.1" x2="247.6" y2="225.1"/>
				<line class="st13" x1="184.5" y1="202.7" x2="184.5" y2="275.5"/>
				<path class="st9" d="M240.4,237.9h-9c-1.9,0-3.7,1.6-3.7,3.7v33.8h16.3v-33.6C244.3,239.5,242.5,237.9,240.4,237.9z"/>
				<rect x="227.8" y="276" class="st19" width="16.3" height="21.4"/>
			</g>
		</g>
	</g>
	<g id="облачко_1__x28_копия_x29__2_">
		<g>
			<ellipse class="st17" cx="269" cy="104.5" rx="6.4" ry="5.3"/>
			<ellipse class="st17" cx="277.1" cy="99.9" rx="6.4" ry="4.6"/>
			<ellipse class="st17" cx="299.7" cy="98.8" rx="7.8" ry="5.7"/>
			<ellipse class="st17" cx="289.8" cy="97.6" rx="9.9" ry="6.9"/>
			<ellipse class="st17" cx="307.5" cy="103.2" rx="3.5" ry="4.1"/>
			<path class="st17" d="M269,109.8h38.4c0,0,8.7-1.6,5.7-6.5c-3-4.8-34.1-3.2-34.1-3.2l-8.3,3.2L269,109.8z"/>
			<ellipse class="st17" cx="323.8" cy="108" rx="4.4" ry="1.8"/>
			<ellipse class="st17" cx="335.8" cy="108.9" rx="1.2" ry="0.9"/>
		</g>
		<g>
			<ellipse class="st17" cx="554.8" cy="85.7" rx="3" ry="2.1"/>
			<ellipse class="st17" cx="573.1" cy="85.2" rx="8" ry="5.7"/>
			<ellipse class="st17" cx="586.2" cy="80.1" rx="11.5" ry="5.7"/>
			<ellipse class="st17" cx="606.2" cy="80.6" rx="9.9" ry="7.1"/>
			<ellipse class="st17" cx="617.2" cy="85.2" rx="5.8" ry="5.7"/>
			<polygon class="st17" points="617.2,90.9 573.1,90.9 581.1,81.1 605.3,78.7 611.3,79 614.7,78.7 619.3,85.2 		"/>
			<ellipse class="st17" cx="631.7" cy="89.3" rx="2.1" ry="1.4"/>
		</g>
	</g>
	<g id="облачко_1_2_">
		<g>
			<ellipse class="st17" cx="636.7" cy="137.4" rx="4.6" ry="5.3"/>
			<circle class="st17" cx="642.6" cy="132.8" r="4.6"/>
			<circle class="st17" cx="658.7" cy="131.7" r="5.7"/>
			<ellipse class="st17" cx="651.6" cy="130.5" rx="7.1" ry="6.7"/>
			<ellipse class="st17" cx="664.3" cy="136.1" rx="2.5" ry="4.1"/>
			<path class="st17" d="M636.7,142.5h27.6c0,0,6.2-1.6,4.1-6.4c-2.1-4.8-24.6-3.2-24.6-3.2l-6,3.2L636.7,142.5z"/>
			<ellipse class="st17" cx="676.2" cy="140.7" rx="3.2" ry="1.8"/>
		</g>
	</g>
	<g id="Земля">
		<polygon class="st23" points="204.9,333.9 117,333.9 204.9,271 	"/>
		<polygon class="st24" points="202.5,282.6 204.9,333.9 461.2,333.9 372.7,301.8 	"/>
		<ellipse class="st23" cx="208.3" cy="289.2" rx="33.8" ry="32.3"/>
		<ellipse class="st25" cx="262.6" cy="299.4" rx="41.8" ry="22.4"/>
		<circle class="st26" cx="319" cy="301.8" r="16.8"/>
	</g>
</svg>
<rect y="88%" class="st44" width="100%" height="79.2"/>
<svg viewBox="-400 -320 250 671">
	<g id="фотограф">
	<polygon class="rt27" points="357.7,67.9 349.3,58.3 335.8,70.1 343,76.3 	"/>
	<polygon class="rt28" points="341.7,100 319.2,119.9 259.2,127.5 258.5,116 313.4,103.4 329.1,88.6 	"/>
	<path class="rt29" d="M346.1,72.4l-8.8,6.2l-19.3,21.1c6.4,6.4,12.8,12.8,19.2,19.2l9.3-8.8l48,70.9l34.7-23.8l-46.4-77
		C375.2,67.4,358.3,63.8,346.1,72.4z"/>
	<polygon class="rt30" points="429.3,157.2 426,297.3 408,297.3 394.7,181 	"/>
	<path class="rt31" d="M408,297.3v9.3l-30.2,6.5c-2.4,0.5-4.1,2.6-4.1,5.1v1.8h51.6l0.7-22.7H408z"/>
	<rect x="373.7" y="320" class="rt32" width="51.6" height="2"/>
	<g>
		<g>
			<path class="rt33" d="M397.4,188.7c4.7-2.1,8.7-5.3,11.8-9.4c0.5-0.6-0.6-1.2-1-0.6c-3,4-6.8,7-11.4,9
				C396.1,188,396.7,189.1,397.4,188.7L397.4,188.7z"/>
		</g>
	</g>
	<path class="rt34" d="M397.5,206l30.2,17.3l-2.4,96.6h-51.6v-1.6c0-2.6,1.8-4.8,4.3-5.3l30-6.4v-9.3L397.5,206z"/>
	<polyline class="rt35" points="346.7,110.1 356,103.3 378.6,157.2 	"/>
	<g>
		<g>
			<path class="rt36" d="M390.7,311.1c0.7,0.2,1.2,0.9,1.2,1.6c0,0.8,1.2,0.8,1.2,0c0-1.3-0.9-2.5-2.1-2.8
				C390.3,309.7,390,310.9,390.7,311.1L390.7,311.1z"/>
		</g>
	</g>
	<g>
		<g>
			<path class="rt36" d="M394.5,310c0.7,0.2,1.2,0.9,1.2,1.6c0,0.8,1.2,0.8,1.2,0c0-1.3-0.9-2.5-2.1-2.8
				C394.1,308.6,393.8,309.8,394.5,310L394.5,310z"/>
		</g>
	</g>
	<g>
		<g>
			<path class="rt36" d="M398.2,308.9c0.7,0.2,1.2,0.9,1.2,1.6c0,0.8,1.2,0.8,1.2,0c0-1.3-0.9-2.5-2.1-2.8
				C397.8,307.5,397.4,308.7,398.2,308.9L398.2,308.9z"/>
		</g>
	</g>
	<g>
		<g>
			<path class="rt36" d="M401.2,308.1c0.7,0.2,1.2,0.9,1.2,1.6c0,0.8,1.2,0.8,1.2,0c0-1.3-0.9-2.5-2.1-2.8
				C400.8,306.8,400.4,307.9,401.2,308.1L401.2,308.1z"/>
		</g>
	</g>
	<g id="фотик">
		<g>
			<rect x="200.3" y="112.3" class="rt37" width="9.9" height="23.8"/>
			<rect x="210.2" y="113.4" class="rt38" width="10.7" height="21.8"/>
			<rect x="221" y="113.4" class="rt39" width="5.2" height="21.8"/>
			<line class="rt40" x1="210.2" y1="117.4" x2="221" y2="117.4"/>
			<line class="rt40" x1="210.2" y1="126.8" x2="221" y2="126.8"/>
			<line class="rt40" x1="210.2" y1="131.4" x2="221" y2="131.4"/>
			<line class="rt40" x1="210.2" y1="122.3" x2="221" y2="122.3"/>
			<path class="rt41" d="M235.3,142.2h-6.1c-1.7,0-3.1-1.4-3.1-3.1v-29.6c0-1.7,1.4-3.1,3.1-3.1h6.1c1.7,0,3.1,1.4,3.1,3.1V139
				C238.5,140.8,237.1,142.2,235.3,142.2z"/>
			<rect x="198.6" y="112.3" class="rt42" width="1.7" height="23.8"/>
			<rect x="226.1" y="108.9" class="rt37" width="12.3" height="30.2"/>
			<rect x="224.5" y="142.2" class="rt43" width="16" height="10.2"/>
			<line class="rt44" x1="225.7" y1="149.4" x2="188" y2="322"/>
			<line class="rt44" x1="232.5" y1="151.4" x2="232.5" y2="326.3"/>
			<line class="rt44" x1="239.3" y1="150" x2="280" y2="322"/>
		</g>
	</g>
	<path class="rt28" d="M260,115.9h-21.5c-0.8,0-1.6,0.4-2,1.1l-0.1,0.1c-0.4,0.6,0.1,1.4,0.8,1.4h5.6c0,0,1.4,0,1,1.2
		c-0.3,1-9.4,1.1-12,1.2c-0.5,0-0.9,0.2-1.3,0.4c-0.6,0.4-1.3,1.1-0.9,1.5c0.7,0.7,12.1,0.5,12.1,0.5l-12.9,1.6l-0.7,1.2l0.4,0.6
		c0.2,0.4,0.6,0.6,1.1,0.6l12-0.4l-10.7,1.4c-0.5,0.1-1,0.4-1.3,0.8l0,0.9l0.3,0.5l12-0.6l-10.3,2.4l-0.2,1.1l0.7,0.4
		c0,0,16.7-2.7,16.7-2.7l11.8-3.8L260,115.9z"/>
	<path class="rt28" d="M322.7,29.1l11.1-4.1c9.9-3.7,21,0.7,25.8,10.2l0,0c4.4,8.8,2.1,19.5-5.6,25.7l-3,2.4l-6.2,6l-6.1,6
		c-0.8,2.1-1.7,1.8-3.9,2.2l-2.2,0.3c-2.9,0.6-5.3,0.5-6-2.3l-8.6-25.4l-1.8-8.7C316.1,35.7,317.5,31,322.7,29.1z"/>
	<polygon class="rt45" points="316.2,46.1 323.5,67.3 340.1,74.2 362.3,56 359.5,25.8 	"/>
	<polygon class="rt46" points="317.9,47.6 320.1,50.3 324.7,42.5 341.3,46.4 341.3,41.1 345.3,54 347.8,44.5 354.5,43.8 353.1,49.6
		355.3,63.2 362.3,67.9 362.3,51.9 366.7,46.9 362.3,37.7 367.6,37.7 366.7,32.2 359,27.9 336.7,21 320.1,28.5 312.6,42.8 	"/>
	<path class="rt29" d="M300.6,46.1c2.1-1.5,8-3.2,15.4-4.7c16.1-3.3,39.1-6.2,45.2-7c0.8-0.1,1.4-0.9,1.3-1.7v0
		c-2.2-15.3-16.5-25.8-31.7-23.5l-2.8,0.4c-6.7,1-12.3,5.6-14.6,12l-2.3,6.3c-0.1,0.3-1.3,7.5-1.5,7.6l-24.9,13.2"/>
</g>
</svg>
<g style="width: 100%">
	<g>
		<line xmlns="http://www.w3.org/2000/svg" opacity=".3" stroke="#fff" y1="92%" x2="100%" y2="92%" stroke-dasharray="20.4571,13.6381"/>
	</g>
</g>
</svg>
